<svg width="271" height="157" viewBox="0 0 271 157" fill="none" xmlns="http://www.w3.org/2000/svg">
<g id="cat">
<g id="head">
<path id="face" d="M67 74C67 54.1178 83.1177 38 103 38H168C187.882 38 204 54.1178 204 74V132H67V74Z" fill="#222222"/>
<g id="eye">
<path id="Ellipse 1" d="M126 85C126 96.0457 117.046 105 106 105C94.9543 105 86 96.0457 86 85C86 73.9543 94.9543 65 106 65C117.046 65 126 73.9543 126 85Z" fill="#E5DD91"/>
<circle id="Ellipse 2" cx="106" cy="85" r="13" fill="#222222"/>
</g>
<g id="eye_2">
<path id="Ellipse 1_2" d="M183 85C183 96.0457 174.046 105 163 105C151.954 105 143 96.0457 143 85C143 73.9543 151.954 65 163 65C174.046 65 183 73.9543 183 85Z" fill="#E5DD91"/>
<circle id="Ellipse 2_2" cx="163" cy="85" r="13" fill="#222222"/>
</g>
<path id="ear2" d="M206.26 8.49331C202.802 5.33526 187.062 8.43562 151.76 46.1015C160.701 48.105 181.514 55.3749 193.233 68.4262C204.953 81.4775 206.801 33.909 206.26 8.49331Z" fill="#222222"/>
<path id="ear1" d="M88.8865 1.95656C84.2248 1.51506 73.5201 13.4637 67.9943 64.7904C76.3411 61.0094 97.3381 54.29 114.552 57.6604C131.766 61.0309 104.614 21.9289 88.8865 1.95656Z" fill="#222222"/>
</g>
<g id="hand">
<ellipse id="toe1" cx="11.7752" cy="14.8696" rx="11.7752" ry="14.8696" transform="matrix(0.594785 0.803885 -0.594785 0.803885 17.6884 114)" fill="#222222"/>
<ellipse id="palm" cx="28.0903" cy="127.65" rx="19.7528" ry="13.3485" fill="#222222"/>
<ellipse id="toe3" cx="9.99966" cy="15.3914" rx="9.99966" ry="15.3914" transform="matrix(0.674528 -0.738249 0.51396 0.857814 28.6888 129.066)" fill="#222222"/>
<ellipse id="toe2" cx="28.6888" cy="135.335" rx="9.57712" ry="16.989" fill="#222222"/>
</g>
<g id="hand_2">
<ellipse id="toe1_2" cx="11.7752" cy="14.8696" rx="11.7752" ry="14.8696" transform="matrix(0.594785 0.803885 -0.594785 0.803885 230.688 114)" fill="#222222"/>
<ellipse id="palm_2" cx="241.09" cy="127.65" rx="19.7528" ry="13.3485" fill="#222222"/>
<ellipse id="toe3_2" cx="9.99966" cy="15.3914" rx="9.99966" ry="15.3914" transform="matrix(0.674528 -0.738249 0.51396 0.857814 241.689 129.066)" fill="#222222"/>
<ellipse id="toe2_2" cx="241.689" cy="135.335" rx="9.57712" ry="16.989" fill="#222222"/>
</g>
</g>
</svg>
